#!OML:ASF H:\LiuWeirdWalks\Patient Classification 1\Patient 1\Session 1\male.ASF
:FULLY-SPECIFIED
:DEGREES
739
root 0.787387 17.8696 -4.23134 -0.384123 2.59742 -16.4829
lowerback 9.48428 -0.643826 -11.7293
upperback 1.36165 -2.15707 -2.80655
thorax -3.5756 -0.927387 3.88658
lowerneck -14.7245 2.68517 4.59565
upperneck 18.1804 0.485681 10.4417
head 8.12741 1.59925 2.79056
rclavicle 8.74653e-015 -1.59028e-014
rhumerus -29.3077 -24.3732 -2.3017
rradius 37.8851
rwrist -6.12458
rhand -18.1127 -1.43381
rfingers 7.12502
rthumb 8.16156 -31.2562
lclavicle 8.74653e-015 -1.59028e-014
lhumerus -29.1377 29.9423 18.5809
lradius 41.8026
lwrist 10.3107
lhand -19.3476 3.99878
lfingers 7.12502
lthumb 6.96959 33.864
rfemur -8.84432 -12.1147 27.9774
rtibia 47.7969
rfoot -1.23 -1.38589
rtoes -15.3415
lfemur -9.78753 -0.274866 1.43869
ltibia 36.28
lfoot -16.0757 17.4835
ltoes -11.6349
740
root 0.782843 17.8852 -4.2037 -0.281693 2.99278 -16.7809
lowerback 9.64464 -0.688736 -11.8343
upperback 1.44776 -2.24511 -2.88494
thorax -3.55928 -0.97305 3.87489
lowerneck -14.7039 2.67212 4.57767
upperneck 18.0383 0.398074 10.8921
head 8.08207 1.59426 2.93163
rclavicle -4.05521e-014 -1.39944e-013
rhumerus -29.5186 -24.5154 -2.05685
rradius 37.8559
rwrist -6.09863
rhand -18.0576 -1.42207
rfingers 7.12502
rthumb 8.21478 -31.2424
lclavicle -4.05521e-014 -1.39944e-013
lhumerus -28.9293 30.0422 18.9313
lradius 41.749
lwrist 10.2111
lhand -19.3686 4.0098
lfingers 7.12502
lthumb 6.94934 33.8757
rfemur -9.16938 -12.2558 28.3328
rtibia 48.0844
rfoot -0.597864 -1.39684
rtoes -14.9832
lfemur -9.86039 -0.57095 1.78582
ltibia 36.024
lfoot -16.0047 17.4063
ltoes -11.5465
741
root 0.778053 17.9012 -4.17516 -0.177235 3.37029 -17.0475
lowerback 9.78607 -0.72434 -11.9583
upperback 1.53703 -2.3198 -2.96197
thorax -3.52999 -1.01275 3.87302
lowerneck -14.7152 2.64126 4.50187
upperneck 17.9396 0.288516 11.3648
head 8.05781 1.5796 3.08926
rclavicle 1.15295e-014 -3.18055e-015
rhumerus -29.7241 -24.6424 -1.81384
rradius 37.8167
rwrist -6.05507
rhand -17.9873 -1.38536
rfingers 7.12502
rthumb 8.28259 -31.203
lclavicle 1.15295e-014 -3.18055e-015
lhumerus -28.7156 30.1422 19.2976
lradius 41.6723
lwrist 10.0637
lhand -19.3762 3.98182
lfingers 7.12502
lthumb 6.94201 33.848
rfemur -9.50206 -12.3557 28.6507
rtibia 48.3756
rfoot 0.0419403 -1.38216
rtoes -14.5208
lfemur -9.91696 -0.872355 2.09656
ltibia 35.7501
lfoot -15.9368 17.3529
ltoes -11.4084
742
root 0.773664 17.9172 -4.1458 -0.0644485 3.72341 -17.2815
lowerback 9.90886 -0.754947 -12.0986
upperback 1.61794 -2.3877 -3.03799
thorax -3.49926 -1.04873 3.88
lowerneck -14.7092 2.61731 4.45907
upperneck 17.847 0.192154 11.7891
head 8.03281 1.56819 3.22652
rclavicle 0 6.36111e-014
rhumerus -29.9068 -24.7201 -1.59776
rradius 37.7905
rwrist -6.032
rhand -17.8986 -1.37061
rfingers 7.12502
rthumb 8.36822 -31.1848
lclavicle 0 6.36111e-014
lhumerus -28.535 30.2113 19.6656
lradius 41.6004
lwrist 9.9256
lhand -19.3579 3.91521
lfingers 7.12502
lthumb 6.9597 33.7808
rfemur -9.85061 -12.4231 28.9251
rtibia 48.6726
rfoot 0.704102 -1.33064
rtoes -14.0137
lfemur -9.96125 -1.16978 2.36671
ltibia 35.4608
lfoot -15.8654 17.3299
ltoes -11.2486
743
root 0.76988 17.933 -4.11549 0.0525451 4.05094 -17.4933
lowerback 10.0151 -0.78091 -12.2393
upperback 1.69127 -2.44776 -3.11114
thorax -3.46819 -1.08067 3.88882
lowerneck -14.7228 2.58696 4.3906
upperneck 17.8042 0.0869712 12.2086
head 8.0286 1.55323 3.36759
rclavicle -2.38542e-014 4.13472e-014
rhumerus -30.0637 -24.7651 -1.40013
rradius 37.7609
rwrist -6.01866
rhand -17.8324 -1.36559
rfingers 7.12502
rthumb 8.43205 -31.1773
lclavicle -2.38542e-014 4.13472e-014
lhumerus -28.3862 30.2625 20.0305
lradius 41.5326
lwrist 9.80077
lhand -19.3055 3.83273
lfingers 7.12502
lthumb 7.01027 33.6966
rfemur -10.2096 -12.4573 29.1662
rtibia 48.9779
rfoot 1.36976 -1.24155
rtoes -13.5525
lfemur -9.98855 -1.46588 2.6076
ltibia 35.1608
lfoot -15.7953 17.3389
ltoes -11.0818
744
root 0.767184 17.9479 -4.0841 0.166705 4.35821 -17.6858
lowerback 10.1209 -0.802879 -12.3707
upperback 1.75336 -2.5028 -3.18277
thorax -3.44978 -1.10918 3.8938
lowerneck -14.7389 2.55722 4.31896
upperneck 17.7718 -0.0126469 12.6025
head 8.0284 1.53869 3.5017
rclavicle -3.97569e-016 -3.18055e-015
rhumerus -30.2031 -24.7864 -1.21296
rradius 37.7263
rwrist -5.99352
rhand -17.7755 -1.36862
rfingers 7.12502
rthumb 8.48702 -31.1781
lclavicle -3.97569e-016 -3.18055e-015
lhumerus -28.2694 30.3034 20.3884
lradius 41.4599
lwrist 9.6522
lhand -19.2383 3.76779
lfingers 7.12502
lthumb 7.07514 33.6295
rfemur -10.5695 -12.477 29.3707
rtibia 49.2947
rfoot 2.03286 -1.1092
rtoes -13.1322
lfemur -9.99763 -1.76238 2.8205
ltibia 34.8598
lfoot -15.7254 17.3809
ltoes -10.9349
745
root 0.76567 17.962 -4.05213 0.280986 4.64469 -17.86
lowerback 10.2232 -0.825679 -12.4894
upperback 1.80747 -2.55806 -3.25433
thorax -3.43833 -1.13729 3.8919
lowerneck -14.751 2.53646 4.27852
upperneck 17.7624 -0.0984503 12.9412
head 8.03494 1.52845 3.6144
rclavicle 1.70955e-014 -9.54166e-015
rhumerus -30.3048 -24.7691 -1.06125
rradius 37.6956
rwrist -5.99587
rhand -17.7522 -1.37216
rfingers 7.12502
rthumb 8.50946 -31.1807
lclavicle 1.70955e-014 -9.54166e-015
lhumerus -28.1946 30.3296 20.7303
lradius 41.3979
lwrist 9.53136
lhand -19.1649 3.73323
lfingers 7.12502
lthumb 7.14595 33.5926
rfemur -10.9344 -12.4807 29.5401
rtibia 49.625
rfoot 2.6854 -0.939372
rtoes -12.8176
lfemur -9.9959 -2.05451 3.00599
ltibia 34.5643
lfoot -15.6521 17.4555
ltoes -10.823
746
root 0.7651 17.9745 -4.02008 0.392463 4.90542 -18.0289
lowerback 10.3165 -0.845785 -12.5813
upperback 1.8577 -2.60608 -3.32656
thorax -3.42824 -1.16196 3.87353
lowerneck -14.7212 2.50672 4.19851
upperneck 17.7117 -0.180332 13.2911
head 8.01959 1.51468 3.73547
rclavicle -1.63003e-014 -3.81667e-014
rhumerus -30.3921 -24.7187 -0.939765
rradius 37.6775
rwrist -6.04102
rhand -17.74 -1.34923
rfingers 7.12502
rthumb 8.52122 -31.1573
lclavicle -1.63003e-014 -3.81667e-014
lhumerus -28.138 30.3656 21.0489
lradius 41.3247
lwrist 9.40066
lhand -19.091 3.74406
lfingers 7.12502
lthumb 7.2173 33.601
rfemur -11.3036 -12.4601 29.6934
rtibia 49.9722
rfoot 3.32255 -0.736682
rtoes -12.6287
lfemur -9.98447 -2.3332 3.18118
ltibia 34.2787
lfoot -15.5732 17.5568
ltoes -10.7571
747
root 0.765569 17.9858 -3.98741 0.496001 5.14085 -18.1858
lowerback 10.4052 -0.86226 -12.6502
upperback 1.90643 -2.64652 -3.40052
thorax -3.41954 -1.18306 3.83982
lowerneck -14.6846 2.48356 4.13152
upperneck 17.6853 -0.25143 13.6063
head 8.01073 1.50445 3.84466
rclavicle -4.13472e-014 -4.77083e-014
rhumerus -30.4521 -24.6842 -0.834125
rradius 37.6346
rwrist -6.05746
rhand -17.7023 -1.2626
rfingers 7.12502
rthumb 8.55765 -31.0692
lclavicle -4.13472e-014 -4.77083e-014
lhumerus -28.0953 30.4292 21.3494
lradius 41.2364
lwrist 9.25528
lhand -19.0083 3.76006
lfingers 7.12502
lthumb 7.29714 33.6142
rfemur -11.67 -12.4237 29.8206
rtibia 50.3373
rfoot 3.95408 -0.512188
rtoes -12.5481
lfemur -9.95333 -2.60906 3.33677
ltibia 34.0004
lfoot -15.4945 17.6873
ltoes -10.7036
748
root 0.767329 17.9963 -3.95436 0.600488 5.35003 -18.3019
lowerback 10.4774 -0.873011 -12.7228
upperback 1.95981 -2.6771 -3.48355
thorax -3.39849 -1.2002 3.79668
lowerneck -14.6249 2.46413 4.08054
upperneck 17.6177 -0.306509 13.8872
head 7.983 1.4963 3.93923
rclavicle 3.97569e-014 -9.54166e-015
rhumerus -30.5034 -24.6505 -0.741145
rradius 37.5903
rwrist -6.06295
rhand -17.6655 -1.13893
rfingers 7.12502
rthumb 8.59311 -30.9441
lclavicle 3.97569e-014 -9.54166e-015
lhumerus -28.0584 30.513 21.6429
lradius 41.1471
lwrist 9.15091
lhand -18.9575 3.78834
lfingers 7.12502
lthumb 7.34619 33.6408
rfemur -12.0436 -12.3735 29.8905
rtibia 50.7254
rfoot 4.58532 -0.258587
rtoes -12.5695
lfemur -9.90573 -2.88316 3.43804
ltibia 33.7248
lfoot -15.4157 17.8495
ltoes -10.6636
749
root 0.769935 18.0061 -3.92024 0.700603 5.54099 -18.3668
lowerback 10.5362 -0.878321 -12.8088
upperback 2.02105 -2.69944 -3.57914
thorax -3.36272 -1.21435 3.74606
lowerneck -14.5883 2.43528 4.0022
upperneck 17.5639 -0.372952 14.1725
head 7.96473 1.48269 4.03971
rclavicle -7.95139e-016 4.45278e-014
rhumerus -30.5558 -24.6393 -0.653119
rradius 37.5425
rwrist -6.0415
rhand -17.6434 -1.01041
rfingers 7.12502
rthumb 8.6145 -30.8147
lclavicle -7.95139e-016 4.45278e-014
lhumerus -28.0301 30.6269 21.9254
lradius 41.054
lwrist 9.05836
lhand -18.9005 3.77631
lfingers 7.12502
lthumb 7.40121 33.6269
rfemur -12.4186 -12.3151 29.8943
rtibia 51.1389
rfoot 5.23079 0.0218832
rtoes -12.5534
lfemur -9.83149 -3.16327 3.47517
ltibia 33.4441
lfoot -15.333 18.0372
ltoes -10.6409
750
root 0.773446 18.0154 -3.8857 0.80214 5.70713 -18.3809
lowerback 10.6021 -0.879261 -12.9203
upperback 2.07309 -2.72129 -3.68092
thorax -3.33993 -1.22691 3.70299
lowerneck -14.5515 2.4025 3.90403
upperneck 17.5446 -0.446477 14.4666
head 7.95848 1.46699 4.14715
rclavicle -1.19271e-014 1.90833e-014
rhumerus -30.5901 -24.5614 -0.600251
rradius 37.5332
rwrist -6.08874
rhand -17.6369 -0.985884
rfingers 7.12502
rthumb 8.62075 -30.7899
lclavicle -1.19271e-014 1.90833e-014
lhumerus -28.0375 30.7644 22.1898
lradius 40.9665
lwrist 8.98114
lhand -18.8499 3.73891
lfingers 7.12502
lthumb 7.45004 33.5877
rfemur -12.8097 -12.2426 29.8356
rtibia 51.5844
rfoot 5.8935 0.321736
rtoes -12.4224
lfemur -9.73433 -3.44341 3.44856
ltibia 33.1538
lfoot -15.2458 18.2483
ltoes -10.6374
751
root 0.777077 18.0243 -3.851 0.911368 5.85473 -18.3488
lowerback 10.6692 -0.875947 -13.0585
upperback 2.11373 -2.74229 -3.78892
thorax -3.32909 -1.23769 3.668
lowerneck -14.5202 2.37117 3.81311
upperneck 17.5425 -0.519785 14.7466
head 7.95922 1.4516 4.24958
rclavicle -3.10104e-014 -3.81667e-014
rhumerus -30.6207 -24.4739 -0.55827
rradius 37.5256
rwrist -6.12705
rhand -17.646 -0.979946
rfingers 7.12502
rthumb 8.61193 -30.7843
lclavicle -3.10104e-014 -3.81667e-014
lhumerus -28.0888 30.884 22.4298
lradius 40.9075
lwrist 8.97816
lhand -18.8072 3.70474
lfingers 7.12502
lthumb 7.49129 33.5521
rfemur -13.2294 -12.149 29.7285
rtibia 52.0658
rfoot 6.56071 0.618455
rtoes -12.1492
lfemur -9.62449 -3.72302 3.3694
ltibia 32.8524
lfoot -15.1568 18.4693
ltoes -10.6349
752
root 0.780906 18.0322 -3.81571 1.01885 5.97196 -18.2809
lowerback 10.7446 -0.864841 -13.2178
upperback 2.14185 -2.75856 -3.89974
thorax -3.33611 -1.24445 3.64132
lowerneck -14.4954 2.35085 3.7584
upperneck 17.5418 -0.579581 14.9887
head 7.96101 1.44175 4.33489
rclavicle 1.19271e-014 0
rhumerus -30.6371 -24.3993 -0.526533
rradius 37.5056
rwrist -6.11955
rhand -17.6648 -0.989801
rfingers 7.12502
rthumb 8.59382 -30.7949
lclavicle 1.19271e-014 0
lhumerus -28.1855 30.9879 22.6384
lradius 40.8588
lwrist 8.97577
lhand -18.7618 3.65042
lfingers 7.12502
lthumb 7.5351 33.4962
rfemur -13.6675 -12.022 29.5845
rtibia 52.5872
rfoot 7.21233 0.89961
rtoes -11.7101
lfemur -9.48688 -3.98968 3.24882
ltibia 32.544
lfoot -15.072 18.6983
ltoes -10.6745
